<?xml version="1.0" encoding="UTF-8"?>
<svg width="36px" height="26px" viewBox="0 0 36 26" version="1.1" xmlns="http://www.w3.org/2000/svg" xmlns:xlink="http://www.w3.org/1999/xlink">
    <!-- Generator: Sketch 58 (84663) - https://sketch.com -->
    <title>“</title>
    <desc>Created with Sketch.</desc>
    <g id="Final-Project-Pages" stroke="none" stroke-width="1" fill="none" fill-rule="evenodd">
        <g id="UserIQ-Creation-Flows-Project" transform="translate(-291.000000, -3140.000000)" fill="#121212" fill-rule="nonzero">
            <g id="Background-Section" transform="translate(180.000000, 1176.000000)">
                <g id="Quote" transform="translate(111.000000, 1964.000000)">
                    <g id="“">
                        <path d="M8.5752809,0 L12.7820225,3.29113924 C10.2741573,5.59493671 8.5752809,8.39240506 7.84719101,11.0253165 C11.7303371,11.0253165 14.9662921,14.3987342 14.9662921,18.4303797 C14.9662921,22.5443038 11.7303371,26 7.68539326,26 C3.15505618,26 0,21.721519 0,15.7151899 C0,10.8607595 2.7505618,5.67721519 8.5752809,0 Z M29.6089888,0 L33.8157303,3.29113924 C31.3078652,5.59493671 29.6089888,8.39240506 28.8808989,11.0253165 C32.7640449,11.0253165 36,14.3987342 36,18.4303797 C36,22.5443038 32.7640449,26 28.7191011,26 C24.188764,26 21.0337079,21.721519 21.0337079,15.7151899 C21.0337079,10.8607595 23.7842697,5.67721519 29.6089888,0 Z"></path>
                    </g>
                </g>
            </g>
        </g>
    </g>
</svg>