<?xml version="1.0" encoding="UTF-8"?>
<svg width="38px" height="38px" viewBox="0 0 38 38" version="1.1" xmlns="http://www.w3.org/2000/svg" xmlns:xlink="http://www.w3.org/1999/xlink">
    <!-- Generator: Sketch 57.1 (83088) - https://sketch.com -->
    <title></title>
    <desc>Created with Sketch.</desc>
    <g id="Symbols" stroke="none" stroke-width="1" fill="none" fill-rule="evenodd">
        <g id="Social-Links" transform="translate(-90.000000, 0.000000)" fill="#FFFFFF" fill-rule="nonzero">
            <g id="">
                <path d="M108.75,0 C112.127017,0 115.252016,0.844254417 118.125,2.5327621 C120.997984,4.22126978 123.27873,6.50201613 124.967238,9.375 C126.655746,12.2479839 127.5,15.3729835 127.5,18.75 C127.5,22.1270165 126.655746,25.2520161 124.967238,28.125 C123.27873,30.9979839 120.997984,33.2787302 118.125,34.9672379 C115.252016,36.6557456 112.127017,37.5 108.75,37.5 C105.372983,37.5 102.247984,36.6557456 99.375,34.9672379 C96.5020161,33.2787302 94.2212698,30.9979839 92.5327621,28.125 C90.8442544,25.2520161 90,22.1270165 90,18.75 C90,15.3729835 90.8442544,12.2479839 92.5327621,9.375 C94.2212698,6.50201613 96.5020161,4.22126978 99.375,2.5327621 C102.247984,0.844254417 105.372983,0 108.75,0 Z M121.149194,8.61895161 C120.594758,9.375 119.813508,10.181452 118.805444,11.0383065 C116.890121,12.6512093 114.697581,13.9616939 112.227823,14.9697581 C112.681452,15.9778222 113.135081,17.0362899 113.58871,18.1451613 C115.856855,17.8427419 118.326613,17.8175407 120.997984,18.0695565 C122.409275,18.2207661 123.669354,18.397177 124.778226,18.5987903 C124.727823,16.7338706 124.400202,14.9571569 123.795363,13.2686492 C123.190524,11.5801415 122.308467,10.0302423 121.149194,8.61895161 Z M119.334677,6.80443548 C117.368952,5.04032297 115.126008,3.84324558 112.605847,3.21320565 C110.085686,2.58316571 107.540323,2.57056452 104.969758,3.17540323 C107.137097,6.0483871 109.128024,9.17338671 110.94254,12.5504032 C113.361895,11.6935488 115.453629,10.5342738 117.217742,9.07258065 C118.175404,8.26612865 118.881048,7.51008026 119.334677,6.80443548 Z M101.945565,4.30947581 C99.6774194,5.36794355 97.7620972,6.88004032 96.1995968,8.84576613 C94.6370964,10.8114919 93.603831,13.0292335 93.0997984,15.4989919 C94.4606855,15.4989919 96.0735883,15.4233871 97.9385081,15.2721774 C101.416331,14.9697581 104.717742,14.3901206 107.842742,13.5332661 C106.028226,10.2570568 104.0625,7.18245968 101.945565,4.30947581 Z M92.7217742,18.75 C92.7217742,20.7661294 93.0871972,22.6940528 93.8180444,24.5337702 C94.5488915,26.3734875 95.5695568,28.0241939 96.8800403,29.4858871 C98.2409274,27.1169359 100.105847,24.974798 102.474798,23.0594758 C105.045363,20.9425403 107.716733,19.5060484 110.488911,18.75 C110.136088,17.8427419 109.707662,16.9354839 109.203629,16.0282258 C105.826613,17.0362899 102.172379,17.7167335 98.2409274,18.0695565 C96.1239919,18.2207661 94.2842746,18.296371 92.7217742,18.296371 L92.7217742,18.75 Z M98.921371,31.3760081 C101.23992,33.2409278 103.848287,34.337198 106.746472,34.6648185 C109.644657,34.9924391 112.404233,34.6018149 115.025202,33.4929435 C114.369959,29.6118955 113.235887,25.5796367 111.622984,21.3961694 C108.548387,22.4042335 105.826613,23.9163303 103.457661,25.9324597 C101.340726,27.6965722 99.828629,29.5110883 98.921371,31.3760081 Z M117.671371,32.0564516 C119.485887,30.8467742 120.997984,29.3094762 122.207661,27.4445565 C123.417339,25.5796367 124.198588,23.5383061 124.551411,21.3205645 C123.644153,21.0181452 122.535282,20.7913306 121.224798,20.640121 C118.90625,20.287298 116.688508,20.287298 114.571573,20.640121 C116.033266,24.6723786 117.066532,28.477823 117.671371,32.0564516 Z"></path>
            </g>
        </g>
    </g>
</svg>