<?xml version="1.0" encoding="UTF-8"?>
<svg width="38px" height="37px" viewBox="0 0 38 37" version="1.1" xmlns="http://www.w3.org/2000/svg" xmlns:xlink="http://www.w3.org/1999/xlink">
    <!-- Generator: Sketch 57.1 (83088) - https://sketch.com -->
    <title></title>
    <desc>Created with Sketch.</desc>
    <g id="Symbols" stroke="none" stroke-width="1" fill="none" fill-rule="evenodd">
        <g id="Social-Links" transform="translate(-180.000000, 0.000000)" fill="#FFFFFF" fill-rule="nonzero">
            <g id="">
                <path d="M192.550403,29.4102823 C192.550403,29.6118955 192.411795,29.7253028 192.134577,29.750504 C191.857358,29.7757053 191.71875,29.6875004 191.71875,29.4858871 C191.71875,29.2842738 191.844758,29.1834677 192.096774,29.1834677 C192.247984,29.1834677 192.361391,29.208669 192.436996,29.2590726 C192.512601,29.3094762 192.550403,29.3598786 192.550403,29.4102823 Z M190.206653,29.1078629 C190.257057,28.9062496 190.408267,28.843246 190.660282,28.9188508 C190.912298,28.9944556 191.025705,29.0952617 191.000504,29.2212702 C190.975303,29.3472786 190.912298,29.4354835 190.811492,29.4858871 C190.710686,29.5362907 190.609879,29.5362907 190.509073,29.4858871 C190.408267,29.4354835 190.32006,29.3724798 190.244456,29.296875 C190.168851,29.2212702 190.15625,29.1582665 190.206653,29.1078629 Z M193.533266,28.9566532 C193.785282,28.9566532 193.923892,29.0322581 193.949093,29.1834677 C193.974295,29.3346774 193.860887,29.4606859 193.608871,29.5614919 C193.508065,29.5614919 193.419859,29.5488907 193.344254,29.5236895 C193.268649,29.4984883 193.218246,29.4102823 193.193044,29.2590726 C193.167842,29.1078629 193.28125,29.0070568 193.533266,28.9566532 Z M198.523185,0 C201.950604,0 205.126008,0.806451997 208.049395,2.41935484 C210.972783,4.03225768 213.266129,6.224798 214.929435,8.99697581 C216.643146,11.8699597 217.5,15.0201617 217.5,18.4475806 C217.5,22.631048 216.328125,26.3734875 213.984375,29.6748992 C211.640625,32.9763109 208.578629,35.2570561 204.798387,36.5171371 C204.395162,36.6179432 204.080141,36.5675402 203.853327,36.3659274 C203.626512,36.1643141 203.513105,35.9122984 203.513105,35.609879 L203.513105,29.2590726 C203.513105,27.6461697 203.084677,26.4868948 202.227823,25.78125 C204.092742,25.5796367 205.478831,25.327621 206.386089,25.0252016 C207.797379,24.521169 208.881048,23.7651206 209.637097,22.7570565 C210.493951,21.446573 210.922379,19.6572581 210.922379,17.3891129 C210.922379,16.4314512 210.745968,15.599798 210.393145,14.8941532 C210.141129,14.3901206 209.662298,13.7600806 208.956653,13.0040323 C209.158267,12.5 209.284274,11.8951609 209.334677,11.1895161 C209.385081,10.0806448 209.208669,8.97177458 208.805444,7.86290323 C208.301411,7.71169355 207.595766,7.81249962 206.688508,8.16532258 C206.083669,8.41733833 205.378025,8.77016129 204.571573,9.22379032 L203.58871,9.90423387 C202.026209,9.45060484 200.425908,9.22379032 198.787802,9.22379032 C197.149697,9.22379032 195.574597,9.45060484 194.0625,9.90423387 L193.079637,9.22379032 C192.273185,8.77016129 191.542339,8.41733833 190.887097,8.16532258 C189.979839,7.81249962 189.299395,7.71169355 188.845766,7.86290323 C188.392137,8.97177458 188.215726,10.0806448 188.316532,11.1895161 C188.316532,11.8951609 188.417338,12.4747984 188.618952,12.9284274 C188.014113,13.6844758 187.573085,14.3775205 187.295867,15.0075605 C187.018649,15.6376004 186.88004,16.4314512 186.88004,17.3891129 C186.88004,19.6572581 187.283266,21.4213706 188.089718,22.6814516 C188.795363,23.7399194 189.85383,24.521169 191.265121,25.0252016 C192.172379,25.327621 193.533266,25.5796367 195.347782,25.78125 C194.69254,26.3860887 194.289315,27.2429432 194.138105,28.3518145 C193.28125,28.7550399 192.449597,28.9062496 191.643145,28.8054435 C190.332662,28.7046375 189.324596,28.0241939 188.618952,26.7641129 C188.316532,26.2096778 187.913307,25.7560488 187.409274,25.4032258 C187.056451,25.2016125 186.678427,25.0252016 186.275202,24.8739919 L185.745968,24.7983871 C185.191533,24.7983871 184.901713,24.8865931 184.876512,25.063004 C184.851311,25.2394149 184.964718,25.428427 185.216734,25.6300403 L185.594758,25.9324597 C185.947581,26.134073 186.300403,26.4616935 186.653226,26.9153226 C186.955645,27.2681455 187.207661,27.671371 187.409274,28.125 L187.711694,28.7298387 C187.963709,29.4858871 188.442541,30.0655246 189.148185,30.46875 C189.753024,30.821573 190.483871,31.0483875 191.340726,31.1491935 C191.945565,31.1995972 192.575604,31.1743948 193.230847,31.0735887 L194.0625,30.9979839 L194.138105,35.609879 C194.138105,35.9122984 194.024698,36.1643141 193.797883,36.3659274 C193.571069,36.5675402 193.256048,36.6179432 192.852823,36.5171371 C189.022177,35.2570561 185.922379,32.9763109 183.553427,29.6748992 C181.184476,26.3734875 180,22.631048 180,18.4475806 C180,15.0201617 180.806452,11.8951609 182.419355,9.07258065 C184.032258,6.25000038 186.25,4.03225768 189.072581,2.41935484 C191.895161,0.806451997 195.045363,0 198.523185,0 Z M187.333669,26.0836694 C187.434475,25.9828633 187.560484,26.0080645 187.711694,26.1592742 C187.862903,26.3104839 187.888104,26.4364923 187.787298,26.5372984 C187.686492,26.6381045 187.560484,26.6129032 187.409274,26.4616935 C187.258065,26.3104839 187.232863,26.1844754 187.333669,26.0836694 Z M186.502016,25.4788306 C186.602822,25.3780246 186.728831,25.3654234 186.88004,25.4410282 C187.03125,25.5166331 187.081654,25.6174391 187.03125,25.7434476 C186.980846,25.869456 186.867439,25.8820561 186.691028,25.78125 C186.514617,25.6804439 186.451613,25.5796367 186.502016,25.4788306 Z M188.996976,28.125 C189.047379,28.0745964 189.122984,28.0619964 189.22379,28.0871976 C189.324596,28.1123988 189.412802,28.1628024 189.488407,28.2384073 C189.564012,28.3140121 189.614416,28.4022181 189.639617,28.5030242 C189.664818,28.6038303 189.652218,28.6794351 189.601815,28.7298387 C189.450605,28.8810484 189.274194,28.8558472 189.072581,28.6542339 C188.971775,28.5534278 188.921371,28.4526206 188.921371,28.3518145 C188.921371,28.2510084 188.946572,28.1754036 188.996976,28.125 Z M188.089718,27.0665323 C188.190524,27.0161286 188.27873,27.0035286 188.354335,27.0287298 C188.42994,27.0539311 188.492943,27.1169359 188.543347,27.2177419 C188.694556,27.4193552 188.694556,27.5705649 188.543347,27.671371 C188.492943,27.7217746 188.42994,27.7217746 188.354335,27.671371 C188.27873,27.6209674 188.190524,27.5705649 188.089718,27.5201613 C187.988912,27.2681455 187.988912,27.1169359 188.089718,27.0665323 Z"></path>
            </g>
        </g>
    </g>
</svg>