<?xml version="1.0" encoding="UTF-8"?>
<svg width="38px" height="38px" viewBox="0 0 38 38" version="1.1" xmlns="http://www.w3.org/2000/svg" xmlns:xlink="http://www.w3.org/1999/xlink">
    <!-- Generator: Sketch 57.1 (83088) - https://sketch.com -->
    <title></title>
    <desc>Created with Sketch.</desc>
    <g id="Symbols" stroke="none" stroke-width="1" fill="none" fill-rule="evenodd">
        <g id="Social-Links" fill="#FFFFFF" fill-rule="nonzero">
            <g id="">
                <path d="M8.37053571,37.5 L0.5859375,37.5 L0.5859375,12.4720982 L8.37053571,12.4720982 L8.37053571,37.5 Z M4.52008929,9.04017857 C3.29241029,9.04017857 2.23214328,8.59375043 1.33928571,7.70089286 C0.446428146,6.80803529 0,5.74776828 0,4.52008929 C0,3.29241029 0.446428146,2.23214328 1.33928571,1.33928571 C2.23214328,0.446428146 3.29241029,0 4.52008929,0 C5.74776828,0 6.80803529,0.446428146 7.70089286,1.33928571 C8.59375043,2.23214328 9.04017857,3.29241029 9.04017857,4.52008929 C9.04017857,5.74776828 8.59375043,6.80803529 7.70089286,7.70089286 C6.80803529,8.59375043 5.74776828,9.04017857 4.52008929,9.04017857 Z M37.5,37.5 L29.7154018,37.5 L29.7154018,25.2790179 C29.7154018,23.2700893 29.5479911,21.8191969 29.2131696,20.9263393 C28.5993308,19.4196429 27.3995531,18.6662946 25.6138393,18.6662946 C23.8281254,18.6662946 22.5725451,19.3359375 21.8470982,20.6752232 C21.2890621,21.6796875 21.0100446,23.1584826 21.0100446,25.1116071 L21.0100446,37.5 L13.3091518,37.5 L13.3091518,12.4720982 L20.7589286,12.4720982 L20.7589286,15.9040179 L20.8426339,15.9040179 C21.4006701,14.7879469 22.2935264,13.8671879 23.5212054,13.1417411 C24.8604911,12.2488835 26.4229915,11.8024554 28.2087054,11.8024554 C31.8359371,11.8024554 34.3750004,12.946429 35.8258929,15.234375 C36.9419639,17.0758929 37.5,19.921875 37.5,23.7723214 L37.5,37.5 Z"></path>
            </g>
        </g>
    </g>
</svg>