<?xml version="1.0" encoding="UTF-8"?>
<svg width="51px" height="68px" viewBox="0 0 51 68" version="1.1" xmlns="http://www.w3.org/2000/svg" xmlns:xlink="http://www.w3.org/1999/xlink">
    <!-- Generator: Sketch 58 (84663) - https://sketch.com -->
    <title>3</title>
    <desc>Created with Sketch.</desc>
    <g id="Final-Project-Pages" stroke="none" stroke-width="1" fill="none" fill-rule="evenodd">
        <g id="UserIQ-Creation-Flows-Project" transform="translate(-179.000000, -9631.000000)" fill="#F6F6F6" fill-rule="nonzero">
            <g id="Process-Section" transform="translate(0.000000, 3727.000000)">
                <g id="Subsection-3" transform="translate(0.000000, 5885.000000)">
                    <path d="M205.018484,87 C193.32902,87 184.467652,82.3202247 179,75.9213483 L187.201479,66.5617978 C191.726433,71.5280899 197.853974,74.2977528 204.358595,74.2977528 C211.523105,74.2977528 215.67098,70.9550562 215.67098,66.2752809 C215.67098,61.2134831 211.805915,58.6348315 203.038817,58.7303371 L195.591497,58.7303371 L195.591497,46.6966292 L203.038817,46.7921348 C210.109057,46.7921348 214.351201,44.1179775 214.351201,39.4382022 C214.351201,34.6629213 209.920518,31.6067416 203.510166,31.6067416 C197.382625,31.6067416 192.574861,34.6629213 188.238447,39.247191 L180.225508,30.6516854 C185.598891,24.0617978 193.32902,19 204.829945,19 C219.441774,19 228.585952,26.5449438 228.585952,36.9550562 C228.585952,44.5 223.495379,49.9438202 216.425139,52.0449438 C223.495379,53.6685393 230,58.7303371 230,67.4213483 C230,78.7865169 220.101664,87 205.018484,87 Z" id="3"></path>
                </g>
            </g>
        </g>
    </g>
</svg>