<?xml version="1.0" encoding="UTF-8"?>
<svg width="51px" height="68px" viewBox="0 0 51 68" version="1.1" xmlns="http://www.w3.org/2000/svg" xmlns:xlink="http://www.w3.org/1999/xlink">
    <!-- Generator: Sketch 58 (84663) - https://sketch.com -->
    <title>2</title>
    <desc>Created with Sketch.</desc>
    <g id="Final-Project-Pages" stroke="none" stroke-width="1" fill="none" fill-rule="evenodd">
        <g id="UserIQ-Creation-Flows-Project" transform="translate(-179.000000, -7096.000000)" fill="#F6F6F6" fill-rule="nonzero">
            <g id="Process-Section" transform="translate(0.000000, 3727.000000)">
                <g id="Subsection-2" transform="translate(0.000000, 3350.000000)">
                    <path d="M179.486641,87 L179.486641,75.3261803 L204.110687,56.2589413 C212.091603,49.9356223 214.622137,45.5579399 214.622137,40.888412 C214.622137,35.3433476 209.950382,32.0357654 204.5,32.0357654 C197.979008,32.0357654 193.015267,35.3433476 188.148855,40.888412 L179,32.0357654 C185.618321,23.6695279 194.085878,19 204.889313,19 C219.099237,19 229.416031,27.7553648 229.416031,40.304721 C229.416031,49.2546495 225.522901,56.1616595 213.843511,64.6251788 L201.677481,74.0615165 L230,74.0615165 L230,87 L179.486641,87 Z" id="2"></path>
                </g>
            </g>
        </g>
    </g>
</svg>